# xmcd
#
# Track frame offsets:
# 183
# 25395
# 42708
# 58163
# 65598
# 86798
# 109090
# 127710
# 149553
# 159635
# 182888
# 194600
# 209090
# 224728
# 251098
# 271248
# 281318
# 309543
#
# Disc length: 4414 seconds
#
#
# Revision: 2
# Processed by: cddbd v1.5.2PL0 Copyright (c) Steve Scherf et al.
# Submitted via: FreeRIP 2.951 
#
DISCID=2a113c12
DTITLE=Puccini - La Bohème
DYEAR=1956
DGENRE=Classical
TTITLE0=Questo "Mar Rosso" mi ammollisce - Nei cieli bigi
TTITLE1=Abbosso, abbosso l'autor!
TTITLE2=Io resto per terminar
TTITLE3=Oh! Sventata, sventata - Non stia sull'uscio
TTITLE4=Che gelida manina
TTITLE5=Si, mi chiamano Mimì
TTITLE6=O soave fanciulla, o dolce viso
TTITLE7=Quando men vo soletta per la via - Siamo all'ultima scena
TTITLE8=Caro! - Fuori il danaro! - La Ritirata!
TTITLE9=Mimì? - Speravo di trovarvi qui - Rudolfo mi ama e mi fugge
TTITLE10=Marcello. Finalmente. Qui niun ci sente - Mimì è una civetta
TTITLE11=Mimì è tanto malata - La mia stanza è una tana
TTITLE12=Addio. - Che! Vai? - Donde lieta uscì al tuo grido d'amore
TTITLE13=Dunque è proprio finita? - Ci lasveremo alla stagion dei fior!
TTITLE14=In un cougè? O Mimì, tu più non torni - Io non so come sia
TTITLE15=Vecchia zimarra - Schaunard, ognuno per diversa via
TTITLE16=Sono andati? Fingevo di dormire - Che avvien? - Sì, sì, perdona
TTITLE17=Dorme? - Riposa. - Madonna benedetta - Mimì!... Mimì!... Mimì!...
EXTD=María Callas (soprano]\nGiuseppe Di Stefano (tenore]\nRolando Panerai (baritono]\nNicola Zaccaria (basso]\nAnna Moffo (soprano]\nOrchestra del Teatro alla Scala\n
EXTT0=
EXTT1=
EXTT2=
EXTT3=
EXTT4=
EXTT5=
EXTT6=
EXTT7=
EXTT8=
EXTT9=
EXTT10=
EXTT11=
EXTT12=
EXTT13=
EXTT14=
EXTT15=
EXTT16=
EXTT17=
PLAYORDER=
